<mxfile host="app.diagrams.net" modified="2024-02-12T14:59:58.892Z" agent="Mozilla/5.0 (Windows NT 10.0; Win64; x64) AppleWebKit/537.36 (KHTML, like Gecko) Chrome/121.0.0.0 Safari/537.36" etag="TRnwsXisSNT3euOGefPE" version="23.1.2" type="google">
  <diagram name="Pagina-1" id="A9OZWy0N8iRFsuMZR-Yt">
    <mxGraphModel grid="1" page="1" gridSize="10" guides="1" tooltips="1" connect="1" arrows="1" fold="1" pageScale="1" pageWidth="827" pageHeight="1169" math="0" shadow="0">
      <root>
        <mxCell id="0" />
        <mxCell id="1" parent="0" />
        <mxCell id="azU4eCN_7hu06B1J2iZ8-1" value="" style="verticalLabelPosition=bottom;shadow=0;dashed=0;align=center;html=1;verticalAlign=top;shape=mxgraph.electrical.logic_gates.d_type_flip-flop;rounded=0;" vertex="1" parent="1">
          <mxGeometry x="590" y="920" width="100" height="80" as="geometry" />
        </mxCell>
        <mxCell id="azU4eCN_7hu06B1J2iZ8-2" value="" style="verticalLabelPosition=bottom;shadow=0;dashed=0;align=center;html=1;verticalAlign=top;shape=mxgraph.electrical.logic_gates.d_type_flip-flop;rounded=0;" vertex="1" parent="1">
          <mxGeometry x="590" y="800" width="100" height="80" as="geometry" />
        </mxCell>
        <mxCell id="azU4eCN_7hu06B1J2iZ8-3" value="" style="verticalLabelPosition=bottom;shadow=0;dashed=0;align=center;html=1;verticalAlign=top;shape=mxgraph.electrical.logic_gates.d_type_flip-flop;rounded=0;" vertex="1" parent="1">
          <mxGeometry x="590" y="680" width="100" height="80" as="geometry" />
        </mxCell>
        <mxCell id="azU4eCN_7hu06B1J2iZ8-4" value="" style="verticalLabelPosition=bottom;shadow=0;dashed=0;align=center;html=1;verticalAlign=top;shape=mxgraph.electrical.logic_gates.d_type_flip-flop;rounded=0;" vertex="1" parent="1">
          <mxGeometry x="590" y="560" width="100" height="80" as="geometry" />
        </mxCell>
        <mxCell id="azU4eCN_7hu06B1J2iZ8-5" value="" style="verticalLabelPosition=bottom;shadow=0;dashed=0;align=center;html=1;verticalAlign=top;shape=mxgraph.electrical.logic_gates.d_type_flip-flop;rounded=0;" vertex="1" parent="1">
          <mxGeometry x="590" y="440" width="100" height="80" as="geometry" />
        </mxCell>
        <mxCell id="azU4eCN_7hu06B1J2iZ8-6" value="" style="verticalLabelPosition=bottom;shadow=0;dashed=0;align=center;html=1;verticalAlign=top;shape=mxgraph.electrical.logic_gates.d_type_flip-flop;rounded=0;" vertex="1" parent="1">
          <mxGeometry x="590" y="320" width="100" height="80" as="geometry" />
        </mxCell>
        <mxCell id="azU4eCN_7hu06B1J2iZ8-7" value="" style="verticalLabelPosition=bottom;shadow=0;dashed=0;align=center;html=1;verticalAlign=top;shape=mxgraph.electrical.logic_gates.d_type_flip-flop;rounded=0;" vertex="1" parent="1">
          <mxGeometry x="590" y="200" width="100" height="80" as="geometry" />
        </mxCell>
        <mxCell id="azU4eCN_7hu06B1J2iZ8-8" value="" style="verticalLabelPosition=bottom;shadow=0;dashed=0;align=center;html=1;verticalAlign=top;shape=mxgraph.electrical.logic_gates.d_type_flip-flop;rounded=0;" vertex="1" parent="1">
          <mxGeometry x="590" y="80" width="100" height="80" as="geometry" />
        </mxCell>
        <mxCell id="azU4eCN_7hu06B1J2iZ8-9" value="&lt;font style=&quot;font-size: 18px;&quot;&gt;Dato letto dalla memoria&lt;br&gt;(8 bit)&lt;/font&gt;" style="rounded=0;whiteSpace=wrap;html=1;direction=south;movable=1;resizable=1;rotatable=1;deletable=1;editable=1;locked=0;connectable=1;" vertex="1" parent="1">
          <mxGeometry x="-130" y="400" width="90" height="240" as="geometry" />
        </mxCell>
        <mxCell id="azU4eCN_7hu06B1J2iZ8-18" value="&lt;font style=&quot;font-size: 18px;&quot;&gt;Clock&lt;/font&gt;" style="rounded=0;whiteSpace=wrap;html=1;" vertex="1" parent="1">
          <mxGeometry x="580" y="1220" width="120" height="60" as="geometry" />
        </mxCell>
        <mxCell id="azU4eCN_7hu06B1J2iZ8-19" value="" style="endArrow=none;html=1;rounded=0;" edge="1" parent="1" source="azU4eCN_7hu06B1J2iZ8-27">
          <mxGeometry width="50" height="50" relative="1" as="geometry">
            <mxPoint x="380" y="620" as="sourcePoint" />
            <mxPoint x="590" y="140" as="targetPoint" />
          </mxGeometry>
        </mxCell>
        <mxCell id="azU4eCN_7hu06B1J2iZ8-28" value="" style="endArrow=none;html=1;rounded=0;entryDx=0;entryDy=0;entryPerimeter=0;" edge="1" parent="1" source="azU4eCN_7hu06B1J2iZ8-26" target="azU4eCN_7hu06B1J2iZ8-27">
          <mxGeometry width="50" height="50" relative="1" as="geometry">
            <mxPoint x="590" y="1080" as="sourcePoint" />
            <mxPoint x="590" y="100" as="targetPoint" />
          </mxGeometry>
        </mxCell>
        <mxCell id="azU4eCN_7hu06B1J2iZ8-27" value="" style="shape=waypoint;fillStyle=solid;size=6;pointerEvents=1;points=[];fillColor=none;resizable=0;rotatable=0;perimeter=centerPerimeter;snapToPoint=1;rounded=0;" vertex="1" parent="1">
          <mxGeometry x="580" y="130" width="20" height="20" as="geometry" />
        </mxCell>
        <mxCell id="azU4eCN_7hu06B1J2iZ8-29" value="" style="endArrow=none;html=1;rounded=0;entryDx=0;entryDy=0;entryPerimeter=0;" edge="1" parent="1" source="azU4eCN_7hu06B1J2iZ8-25" target="azU4eCN_7hu06B1J2iZ8-26">
          <mxGeometry width="50" height="50" relative="1" as="geometry">
            <mxPoint x="590" y="1080" as="sourcePoint" />
            <mxPoint x="590" y="140" as="targetPoint" />
          </mxGeometry>
        </mxCell>
        <mxCell id="azU4eCN_7hu06B1J2iZ8-26" value="" style="shape=waypoint;fillStyle=solid;size=6;pointerEvents=1;points=[];fillColor=none;resizable=0;rotatable=0;perimeter=centerPerimeter;snapToPoint=1;rounded=0;" vertex="1" parent="1">
          <mxGeometry x="580" y="250" width="20" height="20" as="geometry" />
        </mxCell>
        <mxCell id="azU4eCN_7hu06B1J2iZ8-30" value="" style="endArrow=none;html=1;rounded=0;entryDx=0;entryDy=0;entryPerimeter=0;" edge="1" parent="1" source="azU4eCN_7hu06B1J2iZ8-24" target="azU4eCN_7hu06B1J2iZ8-25">
          <mxGeometry width="50" height="50" relative="1" as="geometry">
            <mxPoint x="590" y="1080" as="sourcePoint" />
            <mxPoint x="590" y="260" as="targetPoint" />
          </mxGeometry>
        </mxCell>
        <mxCell id="azU4eCN_7hu06B1J2iZ8-25" value="" style="shape=waypoint;fillStyle=solid;size=6;pointerEvents=1;points=[];fillColor=none;resizable=0;rotatable=0;perimeter=centerPerimeter;snapToPoint=1;rounded=0;" vertex="1" parent="1">
          <mxGeometry x="580" y="370" width="20" height="20" as="geometry" />
        </mxCell>
        <mxCell id="azU4eCN_7hu06B1J2iZ8-31" value="" style="endArrow=none;html=1;rounded=0;entryDx=0;entryDy=0;entryPerimeter=0;" edge="1" parent="1" source="azU4eCN_7hu06B1J2iZ8-23" target="azU4eCN_7hu06B1J2iZ8-24">
          <mxGeometry width="50" height="50" relative="1" as="geometry">
            <mxPoint x="590" y="1080" as="sourcePoint" />
            <mxPoint x="590" y="380" as="targetPoint" />
          </mxGeometry>
        </mxCell>
        <mxCell id="azU4eCN_7hu06B1J2iZ8-24" value="" style="shape=waypoint;fillStyle=solid;size=6;pointerEvents=1;points=[];fillColor=none;resizable=0;rotatable=0;perimeter=centerPerimeter;snapToPoint=1;rounded=0;" vertex="1" parent="1">
          <mxGeometry x="580" y="490" width="20" height="20" as="geometry" />
        </mxCell>
        <mxCell id="azU4eCN_7hu06B1J2iZ8-32" value="" style="endArrow=none;html=1;rounded=0;entryDx=0;entryDy=0;entryPerimeter=0;" edge="1" parent="1" source="azU4eCN_7hu06B1J2iZ8-22" target="azU4eCN_7hu06B1J2iZ8-23">
          <mxGeometry width="50" height="50" relative="1" as="geometry">
            <mxPoint x="590" y="1080" as="sourcePoint" />
            <mxPoint x="590" y="500" as="targetPoint" />
          </mxGeometry>
        </mxCell>
        <mxCell id="azU4eCN_7hu06B1J2iZ8-23" value="" style="shape=waypoint;fillStyle=solid;size=6;pointerEvents=1;points=[];fillColor=none;resizable=0;rotatable=0;perimeter=centerPerimeter;snapToPoint=1;rounded=0;" vertex="1" parent="1">
          <mxGeometry x="580" y="610" width="20" height="20" as="geometry" />
        </mxCell>
        <mxCell id="azU4eCN_7hu06B1J2iZ8-33" value="" style="endArrow=none;html=1;rounded=0;entryDx=0;entryDy=0;entryPerimeter=0;" edge="1" parent="1" source="azU4eCN_7hu06B1J2iZ8-21" target="azU4eCN_7hu06B1J2iZ8-22">
          <mxGeometry width="50" height="50" relative="1" as="geometry">
            <mxPoint x="590" y="1080" as="sourcePoint" />
            <mxPoint x="590" y="620" as="targetPoint" />
          </mxGeometry>
        </mxCell>
        <mxCell id="azU4eCN_7hu06B1J2iZ8-22" value="" style="shape=waypoint;fillStyle=solid;size=6;pointerEvents=1;points=[];fillColor=none;resizable=0;rotatable=0;perimeter=centerPerimeter;snapToPoint=1;rounded=0;" vertex="1" parent="1">
          <mxGeometry x="580" y="730" width="20" height="20" as="geometry" />
        </mxCell>
        <mxCell id="azU4eCN_7hu06B1J2iZ8-34" value="" style="endArrow=none;html=1;rounded=0;entryDx=0;entryDy=0;entryPerimeter=0;" edge="1" parent="1" source="azU4eCN_7hu06B1J2iZ8-20" target="azU4eCN_7hu06B1J2iZ8-21">
          <mxGeometry width="50" height="50" relative="1" as="geometry">
            <mxPoint x="590" y="1080" as="sourcePoint" />
            <mxPoint x="590" y="740" as="targetPoint" />
          </mxGeometry>
        </mxCell>
        <mxCell id="azU4eCN_7hu06B1J2iZ8-21" value="" style="shape=waypoint;fillStyle=solid;size=6;pointerEvents=1;points=[];fillColor=none;resizable=0;rotatable=0;perimeter=centerPerimeter;snapToPoint=1;rounded=0;" vertex="1" parent="1">
          <mxGeometry x="580" y="850" width="20" height="20" as="geometry" />
        </mxCell>
        <mxCell id="azU4eCN_7hu06B1J2iZ8-35" value="" style="endArrow=none;html=1;rounded=0;entryDx=0;entryDy=0;entryPerimeter=0;" edge="1" parent="1" target="azU4eCN_7hu06B1J2iZ8-20">
          <mxGeometry width="50" height="50" relative="1" as="geometry">
            <mxPoint x="590" y="1040" as="sourcePoint" />
            <mxPoint x="590" y="860" as="targetPoint" />
          </mxGeometry>
        </mxCell>
        <mxCell id="azU4eCN_7hu06B1J2iZ8-20" value="" style="shape=waypoint;fillStyle=solid;size=6;pointerEvents=1;points=[];fillColor=none;resizable=0;rotatable=0;perimeter=centerPerimeter;snapToPoint=1;rounded=0;" vertex="1" parent="1">
          <mxGeometry x="580" y="970" width="20" height="20" as="geometry" />
        </mxCell>
        <mxCell id="azU4eCN_7hu06B1J2iZ8-46" value="" style="edgeStyle=segmentEdgeStyle;endArrow=none;html=1;curved=0;rounded=0;endSize=8;startSize=8;endFill=0;entryX=0;entryY=0.25;entryDx=0;entryDy=0;entryPerimeter=0;" edge="1" parent="1" source="azU4eCN_7hu06B1J2iZ8-94" target="azU4eCN_7hu06B1J2iZ8-8">
          <mxGeometry width="50" height="50" relative="1" as="geometry">
            <mxPoint x="-40" y="440" as="sourcePoint" />
            <mxPoint x="490" y="85" as="targetPoint" />
            <Array as="points">
              <mxPoint x="160" y="450" />
              <mxPoint x="160" y="100" />
            </Array>
          </mxGeometry>
        </mxCell>
        <mxCell id="azU4eCN_7hu06B1J2iZ8-47" style="edgeStyle=orthogonalEdgeStyle;rounded=0;orthogonalLoop=1;jettySize=auto;html=1;endArrow=none;endFill=0;" edge="1" parent="1" source="azU4eCN_7hu06B1J2iZ8-107">
          <mxGeometry relative="1" as="geometry">
            <mxPoint x="-40" y="460" as="sourcePoint" />
            <mxPoint x="590" y="220" as="targetPoint" />
            <Array as="points">
              <mxPoint x="200" y="470" />
              <mxPoint x="200" y="220" />
              <mxPoint x="490" y="220" />
            </Array>
          </mxGeometry>
        </mxCell>
        <mxCell id="azU4eCN_7hu06B1J2iZ8-48" style="edgeStyle=orthogonalEdgeStyle;rounded=0;orthogonalLoop=1;jettySize=auto;html=1;endArrow=none;endFill=0;" edge="1" parent="1">
          <mxGeometry relative="1" as="geometry">
            <mxPoint x="-40" y="490" as="sourcePoint" />
            <mxPoint x="590" y="340" as="targetPoint" />
            <Array as="points">
              <mxPoint x="240" y="490" />
              <mxPoint x="240" y="340" />
              <mxPoint x="590" y="340" />
            </Array>
          </mxGeometry>
        </mxCell>
        <mxCell id="azU4eCN_7hu06B1J2iZ8-53" style="edgeStyle=orthogonalEdgeStyle;rounded=0;orthogonalLoop=1;jettySize=auto;html=1;exitX=1;exitY=0.5;exitDx=0;exitDy=0;movable=0;resizable=0;rotatable=0;deletable=0;editable=0;locked=1;connectable=0;" edge="1" parent="1" source="azU4eCN_7hu06B1J2iZ8-9" target="azU4eCN_7hu06B1J2iZ8-9">
          <mxGeometry relative="1" as="geometry" />
        </mxCell>
        <mxCell id="azU4eCN_7hu06B1J2iZ8-54" style="edgeStyle=orthogonalEdgeStyle;rounded=0;orthogonalLoop=1;jettySize=auto;html=1;endArrow=none;endFill=0;" edge="1" parent="1">
          <mxGeometry relative="1" as="geometry">
            <mxPoint x="-40" y="590" as="sourcePoint" />
            <mxPoint x="590" y="940" as="targetPoint" />
            <Array as="points">
              <mxPoint x="160" y="590" />
              <mxPoint x="160" y="940" />
              <mxPoint x="490" y="940" />
            </Array>
          </mxGeometry>
        </mxCell>
        <mxCell id="azU4eCN_7hu06B1J2iZ8-55" style="edgeStyle=orthogonalEdgeStyle;rounded=0;orthogonalLoop=1;jettySize=auto;html=1;endArrow=none;endFill=0;" edge="1" parent="1" source="azU4eCN_7hu06B1J2iZ8-144">
          <mxGeometry relative="1" as="geometry">
            <mxPoint x="40" y="530" as="sourcePoint" />
            <mxPoint x="590" y="580" as="targetPoint" />
            <Array as="points">
              <mxPoint x="-40" y="530" />
              <mxPoint x="280" y="530" />
              <mxPoint x="280" y="595" />
            </Array>
          </mxGeometry>
        </mxCell>
        <mxCell id="azU4eCN_7hu06B1J2iZ8-56" style="edgeStyle=orthogonalEdgeStyle;rounded=0;orthogonalLoop=1;jettySize=auto;html=1;endArrow=none;endFill=0;" edge="1" parent="1">
          <mxGeometry relative="1" as="geometry">
            <mxPoint x="-40" y="550" as="sourcePoint" />
            <mxPoint x="590" y="700" as="targetPoint" />
            <Array as="points">
              <mxPoint x="240" y="550" />
              <mxPoint x="240" y="700" />
            </Array>
          </mxGeometry>
        </mxCell>
        <mxCell id="azU4eCN_7hu06B1J2iZ8-57" style="edgeStyle=orthogonalEdgeStyle;rounded=0;orthogonalLoop=1;jettySize=auto;html=1;endArrow=none;endFill=0;" edge="1" parent="1">
          <mxGeometry relative="1" as="geometry">
            <mxPoint x="-40" y="570" as="sourcePoint" />
            <mxPoint x="590" y="820" as="targetPoint" />
            <Array as="points">
              <mxPoint x="-40" y="570" />
              <mxPoint x="200" y="570" />
              <mxPoint x="200" y="835" />
            </Array>
          </mxGeometry>
        </mxCell>
        <mxCell id="azU4eCN_7hu06B1J2iZ8-59" value="" style="verticalLabelPosition=bottom;shadow=0;dashed=0;align=center;html=1;verticalAlign=top;shape=mxgraph.electrical.logic_gates.logic_gate;operation=or;" vertex="1" parent="1">
          <mxGeometry x="270" y="1200" width="100" height="60" as="geometry" />
        </mxCell>
        <mxCell id="azU4eCN_7hu06B1J2iZ8-60" value="" style="verticalLabelPosition=bottom;shadow=0;dashed=0;align=center;html=1;verticalAlign=top;shape=mxgraph.electrical.logic_gates.logic_gate;operation=or;" vertex="1" parent="1">
          <mxGeometry x="160" y="1000" width="100" height="60" as="geometry" />
        </mxCell>
        <mxCell id="azU4eCN_7hu06B1J2iZ8-61" value="" style="verticalLabelPosition=bottom;shadow=0;dashed=0;align=center;html=1;verticalAlign=top;shape=mxgraph.electrical.logic_gates.logic_gate;operation=or;" vertex="1" parent="1">
          <mxGeometry x="160" y="1080" width="100" height="60" as="geometry" />
        </mxCell>
        <mxCell id="azU4eCN_7hu06B1J2iZ8-62" value="" style="verticalLabelPosition=bottom;shadow=0;dashed=0;align=center;html=1;verticalAlign=top;shape=mxgraph.electrical.logic_gates.logic_gate;operation=or;" vertex="1" parent="1">
          <mxGeometry x="160" y="1160" width="100" height="60" as="geometry" />
        </mxCell>
        <mxCell id="azU4eCN_7hu06B1J2iZ8-63" value="" style="verticalLabelPosition=bottom;shadow=0;dashed=0;align=center;html=1;verticalAlign=top;shape=mxgraph.electrical.logic_gates.logic_gate;operation=or;" vertex="1" parent="1">
          <mxGeometry x="270" y="1040" width="100" height="60" as="geometry" />
        </mxCell>
        <mxCell id="azU4eCN_7hu06B1J2iZ8-64" value="" style="verticalLabelPosition=bottom;shadow=0;dashed=0;align=center;html=1;verticalAlign=top;shape=mxgraph.electrical.logic_gates.logic_gate;operation=or;" vertex="1" parent="1">
          <mxGeometry x="160" y="1240" width="100" height="60" as="geometry" />
        </mxCell>
        <mxCell id="azU4eCN_7hu06B1J2iZ8-72" style="edgeStyle=orthogonalEdgeStyle;shape=connector;rounded=0;orthogonalLoop=1;jettySize=auto;html=1;exitX=1;exitY=0.5;exitDx=0;exitDy=0;exitPerimeter=0;labelBackgroundColor=default;strokeColor=default;align=center;verticalAlign=middle;fontFamily=Helvetica;fontSize=11;fontColor=default;endArrow=none;endFill=0;entryX=0;entryY=0.25;entryDx=0;entryDy=0;entryPerimeter=0;" edge="1" parent="1" source="azU4eCN_7hu06B1J2iZ8-65" target="azU4eCN_7hu06B1J2iZ8-121">
          <mxGeometry relative="1" as="geometry">
            <mxPoint x="490" y="1150" as="targetPoint" />
            <Array as="points">
              <mxPoint x="575" y="1150" />
            </Array>
          </mxGeometry>
        </mxCell>
        <mxCell id="azU4eCN_7hu06B1J2iZ8-65" value="" style="verticalLabelPosition=bottom;shadow=0;dashed=0;align=center;html=1;verticalAlign=top;shape=mxgraph.electrical.logic_gates.logic_gate;operation=or;" vertex="1" parent="1">
          <mxGeometry x="380" y="1120" width="100" height="60" as="geometry" />
        </mxCell>
        <mxCell id="azU4eCN_7hu06B1J2iZ8-66" style="edgeStyle=orthogonalEdgeStyle;rounded=0;orthogonalLoop=1;jettySize=auto;html=1;exitX=1;exitY=0.5;exitDx=0;exitDy=0;exitPerimeter=0;entryX=0;entryY=0.25;entryDx=0;entryDy=0;entryPerimeter=0;endArrow=none;endFill=0;" edge="1" parent="1" source="azU4eCN_7hu06B1J2iZ8-60" target="azU4eCN_7hu06B1J2iZ8-63">
          <mxGeometry relative="1" as="geometry" />
        </mxCell>
        <mxCell id="azU4eCN_7hu06B1J2iZ8-67" style="edgeStyle=orthogonalEdgeStyle;shape=connector;rounded=0;orthogonalLoop=1;jettySize=auto;html=1;exitX=1;exitY=0.5;exitDx=0;exitDy=0;exitPerimeter=0;entryX=0;entryY=0.75;entryDx=0;entryDy=0;entryPerimeter=0;labelBackgroundColor=default;strokeColor=default;align=center;verticalAlign=middle;fontFamily=Helvetica;fontSize=11;fontColor=default;endArrow=none;endFill=0;" edge="1" parent="1" source="azU4eCN_7hu06B1J2iZ8-61" target="azU4eCN_7hu06B1J2iZ8-63">
          <mxGeometry relative="1" as="geometry" />
        </mxCell>
        <mxCell id="azU4eCN_7hu06B1J2iZ8-68" style="edgeStyle=orthogonalEdgeStyle;shape=connector;rounded=0;orthogonalLoop=1;jettySize=auto;html=1;exitX=1;exitY=0.5;exitDx=0;exitDy=0;exitPerimeter=0;entryX=0;entryY=0.25;entryDx=0;entryDy=0;entryPerimeter=0;labelBackgroundColor=default;strokeColor=default;align=center;verticalAlign=middle;fontFamily=Helvetica;fontSize=11;fontColor=default;endArrow=none;endFill=0;" edge="1" parent="1" source="azU4eCN_7hu06B1J2iZ8-62" target="azU4eCN_7hu06B1J2iZ8-59">
          <mxGeometry relative="1" as="geometry" />
        </mxCell>
        <mxCell id="azU4eCN_7hu06B1J2iZ8-69" style="edgeStyle=orthogonalEdgeStyle;shape=connector;rounded=0;orthogonalLoop=1;jettySize=auto;html=1;exitX=1;exitY=0.5;exitDx=0;exitDy=0;exitPerimeter=0;entryX=0;entryY=0.75;entryDx=0;entryDy=0;entryPerimeter=0;labelBackgroundColor=default;strokeColor=default;align=center;verticalAlign=middle;fontFamily=Helvetica;fontSize=11;fontColor=default;endArrow=none;endFill=0;" edge="1" parent="1" source="azU4eCN_7hu06B1J2iZ8-64" target="azU4eCN_7hu06B1J2iZ8-59">
          <mxGeometry relative="1" as="geometry" />
        </mxCell>
        <mxCell id="azU4eCN_7hu06B1J2iZ8-70" style="edgeStyle=orthogonalEdgeStyle;shape=connector;rounded=0;orthogonalLoop=1;jettySize=auto;html=1;exitX=1;exitY=0.5;exitDx=0;exitDy=0;exitPerimeter=0;entryX=0;entryY=0.25;entryDx=0;entryDy=0;entryPerimeter=0;labelBackgroundColor=default;strokeColor=default;align=center;verticalAlign=middle;fontFamily=Helvetica;fontSize=11;fontColor=default;endArrow=none;endFill=0;" edge="1" parent="1" source="azU4eCN_7hu06B1J2iZ8-63" target="azU4eCN_7hu06B1J2iZ8-65">
          <mxGeometry relative="1" as="geometry">
            <Array as="points">
              <mxPoint x="370" y="1135" />
            </Array>
          </mxGeometry>
        </mxCell>
        <mxCell id="azU4eCN_7hu06B1J2iZ8-71" style="edgeStyle=orthogonalEdgeStyle;shape=connector;rounded=0;orthogonalLoop=1;jettySize=auto;html=1;exitX=1;exitY=0.5;exitDx=0;exitDy=0;exitPerimeter=0;entryX=0;entryY=0.75;entryDx=0;entryDy=0;entryPerimeter=0;labelBackgroundColor=default;strokeColor=default;align=center;verticalAlign=middle;fontFamily=Helvetica;fontSize=11;fontColor=default;endArrow=none;endFill=0;" edge="1" parent="1" source="azU4eCN_7hu06B1J2iZ8-59" target="azU4eCN_7hu06B1J2iZ8-65">
          <mxGeometry relative="1" as="geometry">
            <Array as="points">
              <mxPoint x="370" y="1165" />
            </Array>
          </mxGeometry>
        </mxCell>
        <mxCell id="azU4eCN_7hu06B1J2iZ8-84" value="" style="endArrow=none;html=1;rounded=0;entryDx=0;entryDy=0;entryPerimeter=0;" edge="1" parent="1">
          <mxGeometry width="50" height="50" relative="1" as="geometry">
            <mxPoint x="490" y="930" as="sourcePoint" />
            <mxPoint x="490" y="930" as="targetPoint" />
          </mxGeometry>
        </mxCell>
        <mxCell id="azU4eCN_7hu06B1J2iZ8-85" value="" style="edgeStyle=orthogonalEdgeStyle;rounded=0;orthogonalLoop=1;jettySize=auto;html=1;endArrow=none;endFill=0;" edge="1" parent="1">
          <mxGeometry relative="1" as="geometry">
            <mxPoint x="-40" y="510" as="sourcePoint" />
            <mxPoint x="590" y="460" as="targetPoint" />
            <Array as="points">
              <mxPoint x="280" y="510" />
              <mxPoint x="280" y="460" />
            </Array>
          </mxGeometry>
        </mxCell>
        <mxCell id="azU4eCN_7hu06B1J2iZ8-91" value="" style="endArrow=none;html=1;rounded=0;labelBackgroundColor=default;strokeColor=default;align=center;verticalAlign=middle;fontFamily=Helvetica;fontSize=11;fontColor=default;shape=connector;edgeStyle=orthogonalEdgeStyle;entryX=0;entryY=0.75;entryDx=0;entryDy=0;entryPerimeter=0;" edge="1" parent="1" source="azU4eCN_7hu06B1J2iZ8-98" target="azU4eCN_7hu06B1J2iZ8-64">
          <mxGeometry width="50" height="50" relative="1" as="geometry">
            <mxPoint x="-20" y="590" as="sourcePoint" />
            <mxPoint x="420" y="720" as="targetPoint" />
            <Array as="points">
              <mxPoint x="-20" y="1285" />
            </Array>
          </mxGeometry>
        </mxCell>
        <mxCell id="azU4eCN_7hu06B1J2iZ8-92" value="" style="shape=waypoint;sketch=0;fillStyle=solid;size=6;pointerEvents=1;points=[];fillColor=none;resizable=0;rotatable=0;perimeter=centerPerimeter;snapToPoint=1;fontFamily=Helvetica;fontSize=11;fontColor=default;" vertex="1" parent="1">
          <mxGeometry x="10" y="540" width="20" height="20" as="geometry" />
        </mxCell>
        <mxCell id="azU4eCN_7hu06B1J2iZ8-93" value="" style="shape=waypoint;sketch=0;fillStyle=solid;size=6;pointerEvents=1;points=[];fillColor=none;resizable=0;rotatable=0;perimeter=centerPerimeter;snapToPoint=1;fontFamily=Helvetica;fontSize=11;fontColor=default;" vertex="1" parent="1">
          <mxGeometry x="50" y="500" width="20" height="20" as="geometry" />
        </mxCell>
        <mxCell id="azU4eCN_7hu06B1J2iZ8-95" value="" style="shape=waypoint;sketch=0;fillStyle=solid;size=6;pointerEvents=1;points=[];fillColor=none;resizable=0;rotatable=0;perimeter=centerPerimeter;snapToPoint=1;fontFamily=Helvetica;fontSize=11;fontColor=default;" vertex="1" parent="1">
          <mxGeometry x="70" y="480" width="20" height="20" as="geometry" />
        </mxCell>
        <mxCell id="azU4eCN_7hu06B1J2iZ8-102" value="" style="endArrow=none;html=1;rounded=0;labelBackgroundColor=default;strokeColor=default;align=center;verticalAlign=middle;fontFamily=Helvetica;fontSize=11;fontColor=default;shape=connector;edgeStyle=orthogonalEdgeStyle;entryDx=0;entryDy=0;entryPerimeter=0;" edge="1" parent="1" target="azU4eCN_7hu06B1J2iZ8-98">
          <mxGeometry width="50" height="50" relative="1" as="geometry">
            <mxPoint x="-20" y="590" as="sourcePoint" />
            <mxPoint x="160" y="1285" as="targetPoint" />
            <Array as="points" />
          </mxGeometry>
        </mxCell>
        <mxCell id="azU4eCN_7hu06B1J2iZ8-98" value="" style="shape=waypoint;sketch=0;fillStyle=solid;size=6;pointerEvents=1;points=[];fillColor=none;resizable=0;rotatable=0;perimeter=centerPerimeter;snapToPoint=1;fontFamily=Helvetica;fontSize=11;fontColor=default;" vertex="1" parent="1">
          <mxGeometry x="-30" y="580" width="20" height="20" as="geometry" />
        </mxCell>
        <mxCell id="azU4eCN_7hu06B1J2iZ8-105" value="" style="edgeStyle=segmentEdgeStyle;endArrow=none;html=1;curved=0;rounded=0;endSize=8;startSize=8;endFill=0;entryDx=0;entryDy=0;entryPerimeter=0;" edge="1" parent="1" target="azU4eCN_7hu06B1J2iZ8-94">
          <mxGeometry width="50" height="50" relative="1" as="geometry">
            <mxPoint x="-40" y="450" as="sourcePoint" />
            <mxPoint x="490" y="85" as="targetPoint" />
            <Array as="points">
              <mxPoint x="-40" y="450" />
              <mxPoint x="160" y="450" />
            </Array>
          </mxGeometry>
        </mxCell>
        <mxCell id="azU4eCN_7hu06B1J2iZ8-94" value="" style="shape=waypoint;sketch=0;fillStyle=solid;size=6;pointerEvents=1;points=[];fillColor=none;resizable=0;rotatable=0;perimeter=centerPerimeter;snapToPoint=1;fontFamily=Helvetica;fontSize=11;fontColor=default;" vertex="1" parent="1">
          <mxGeometry x="110" y="440" width="20" height="20" as="geometry" />
        </mxCell>
        <mxCell id="azU4eCN_7hu06B1J2iZ8-108" value="" style="edgeStyle=orthogonalEdgeStyle;rounded=0;orthogonalLoop=1;jettySize=auto;html=1;entryDx=0;entryDy=0;entryPerimeter=0;endArrow=none;endFill=0;" edge="1" parent="1" target="azU4eCN_7hu06B1J2iZ8-107">
          <mxGeometry relative="1" as="geometry">
            <mxPoint x="-40" y="470" as="sourcePoint" />
            <mxPoint x="490" y="205" as="targetPoint" />
            <Array as="points">
              <mxPoint x="-40" y="470" />
              <mxPoint x="200" y="470" />
            </Array>
          </mxGeometry>
        </mxCell>
        <mxCell id="azU4eCN_7hu06B1J2iZ8-107" value="" style="shape=waypoint;sketch=0;fillStyle=solid;size=6;pointerEvents=1;points=[];fillColor=none;resizable=0;rotatable=0;perimeter=centerPerimeter;snapToPoint=1;fontFamily=Helvetica;fontSize=11;fontColor=default;" vertex="1" parent="1">
          <mxGeometry x="90" y="460" width="20" height="20" as="geometry" />
        </mxCell>
        <mxCell id="azU4eCN_7hu06B1J2iZ8-109" value="" style="endArrow=none;html=1;rounded=0;labelBackgroundColor=default;strokeColor=default;align=center;verticalAlign=middle;fontFamily=Helvetica;fontSize=11;fontColor=default;shape=connector;edgeStyle=orthogonalEdgeStyle;entryX=0;entryY=0.25;entryDx=0;entryDy=0;entryPerimeter=0;" edge="1" parent="1" source="azU4eCN_7hu06B1J2iZ8-137" target="azU4eCN_7hu06B1J2iZ8-64">
          <mxGeometry width="50" height="50" relative="1" as="geometry">
            <mxPoint y="570" as="sourcePoint" />
            <mxPoint y="950" as="targetPoint" />
            <Array as="points">
              <mxPoint y="1255" />
            </Array>
          </mxGeometry>
        </mxCell>
        <mxCell id="azU4eCN_7hu06B1J2iZ8-110" value="" style="endArrow=none;html=1;rounded=0;labelBackgroundColor=default;strokeColor=default;align=center;verticalAlign=middle;fontFamily=Helvetica;fontSize=11;fontColor=default;shape=connector;edgeStyle=orthogonalEdgeStyle;exitX=0;exitY=0.75;exitDx=0;exitDy=0;exitPerimeter=0;" edge="1" parent="1" source="azU4eCN_7hu06B1J2iZ8-62" target="azU4eCN_7hu06B1J2iZ8-92">
          <mxGeometry width="50" height="50" relative="1" as="geometry">
            <mxPoint x="370" y="940" as="sourcePoint" />
            <mxPoint x="20" y="890" as="targetPoint" />
            <Array as="points">
              <mxPoint x="20" y="1205" />
            </Array>
          </mxGeometry>
        </mxCell>
        <mxCell id="azU4eCN_7hu06B1J2iZ8-111" value="" style="endArrow=none;html=1;rounded=0;labelBackgroundColor=default;strokeColor=default;align=center;verticalAlign=middle;fontFamily=Helvetica;fontSize=11;fontColor=default;shape=connector;edgeStyle=orthogonalEdgeStyle;exitX=0;exitY=0.25;exitDx=0;exitDy=0;exitPerimeter=0;entryX=0.496;entryY=0.839;entryDx=0;entryDy=0;entryPerimeter=0;" edge="1" parent="1" source="azU4eCN_7hu06B1J2iZ8-60" target="azU4eCN_7hu06B1J2iZ8-94">
          <mxGeometry width="50" height="50" relative="1" as="geometry">
            <mxPoint x="110" y="1020" as="sourcePoint" />
            <mxPoint x="120" y="850" as="targetPoint" />
            <Array as="points">
              <mxPoint x="120" y="1015" />
            </Array>
          </mxGeometry>
        </mxCell>
        <mxCell id="azU4eCN_7hu06B1J2iZ8-112" value="" style="endArrow=none;html=1;rounded=0;labelBackgroundColor=default;strokeColor=default;align=center;verticalAlign=middle;fontFamily=Helvetica;fontSize=11;fontColor=default;shape=connector;edgeStyle=orthogonalEdgeStyle;exitX=0;exitY=0.75;exitDx=0;exitDy=0;exitPerimeter=0;" edge="1" parent="1" source="azU4eCN_7hu06B1J2iZ8-60" target="azU4eCN_7hu06B1J2iZ8-107">
          <mxGeometry width="50" height="50" relative="1" as="geometry">
            <mxPoint x="90" y="1050" as="sourcePoint" />
            <mxPoint x="130" y="930" as="targetPoint" />
            <Array as="points">
              <mxPoint x="100" y="1045" />
            </Array>
          </mxGeometry>
        </mxCell>
        <mxCell id="azU4eCN_7hu06B1J2iZ8-113" value="" style="endArrow=none;html=1;rounded=0;labelBackgroundColor=default;strokeColor=default;align=center;verticalAlign=middle;fontFamily=Helvetica;fontSize=11;fontColor=default;shape=connector;edgeStyle=orthogonalEdgeStyle;exitX=0;exitY=0.25;exitDx=0;exitDy=0;exitPerimeter=0;" edge="1" parent="1" source="azU4eCN_7hu06B1J2iZ8-61" target="azU4eCN_7hu06B1J2iZ8-95">
          <mxGeometry width="50" height="50" relative="1" as="geometry">
            <mxPoint x="94.74000000000001" y="1099.48" as="sourcePoint" />
            <mxPoint x="80" y="980" as="targetPoint" />
            <Array as="points">
              <mxPoint x="80" y="1095" />
            </Array>
          </mxGeometry>
        </mxCell>
        <mxCell id="azU4eCN_7hu06B1J2iZ8-114" value="" style="endArrow=none;html=1;rounded=0;labelBackgroundColor=default;strokeColor=default;align=center;verticalAlign=middle;fontFamily=Helvetica;fontSize=11;fontColor=default;shape=connector;edgeStyle=orthogonalEdgeStyle;exitX=0;exitY=0.75;exitDx=0;exitDy=0;exitPerimeter=0;" edge="1" parent="1" source="azU4eCN_7hu06B1J2iZ8-61" target="azU4eCN_7hu06B1J2iZ8-93">
          <mxGeometry width="50" height="50" relative="1" as="geometry">
            <mxPoint x="79.48000000000002" y="1130" as="sourcePoint" />
            <mxPoint x="60" y="1070" as="targetPoint" />
            <Array as="points">
              <mxPoint x="60" y="1125" />
            </Array>
          </mxGeometry>
        </mxCell>
        <mxCell id="azU4eCN_7hu06B1J2iZ8-115" value="" style="endArrow=none;html=1;rounded=0;labelBackgroundColor=default;strokeColor=default;align=center;verticalAlign=middle;fontFamily=Helvetica;fontSize=11;fontColor=default;shape=connector;edgeStyle=orthogonalEdgeStyle;exitDx=0;exitDy=0;exitPerimeter=0;" edge="1" parent="1">
          <mxGeometry width="50" height="50" relative="1" as="geometry">
            <mxPoint x="39.99999999999977" y="530" as="sourcePoint" />
            <mxPoint x="40" y="530" as="targetPoint" />
            <Array as="points" />
          </mxGeometry>
        </mxCell>
        <mxCell id="azU4eCN_7hu06B1J2iZ8-118" value="" style="edgeStyle=orthogonalEdgeStyle;rounded=0;orthogonalLoop=1;jettySize=auto;html=1;endArrow=none;endFill=0;" edge="1" parent="1">
          <mxGeometry relative="1" as="geometry">
            <mxPoint x="-40" y="530" as="sourcePoint" />
            <mxPoint x="-40" y="530" as="targetPoint" />
            <Array as="points" />
          </mxGeometry>
        </mxCell>
        <mxCell id="azU4eCN_7hu06B1J2iZ8-120" value="" style="endArrow=none;html=1;rounded=0;labelBackgroundColor=default;strokeColor=default;align=center;verticalAlign=middle;fontFamily=Helvetica;fontSize=11;fontColor=default;shape=connector;edgeStyle=orthogonalEdgeStyle;exitX=0;exitY=0.25;exitDx=0;exitDy=0;exitPerimeter=0;" edge="1" parent="1" source="azU4eCN_7hu06B1J2iZ8-62">
          <mxGeometry width="50" height="50" relative="1" as="geometry">
            <mxPoint x="160" y="1175" as="sourcePoint" />
            <mxPoint x="40" y="530" as="targetPoint" />
            <Array as="points">
              <mxPoint x="40" y="1175" />
            </Array>
          </mxGeometry>
        </mxCell>
        <mxCell id="azU4eCN_7hu06B1J2iZ8-121" value="" style="verticalLabelPosition=bottom;shadow=0;dashed=0;align=center;html=1;verticalAlign=top;shape=mxgraph.electrical.logic_gates.logic_gate;operation=and;fontFamily=Helvetica;fontSize=11;fontColor=default;rotation=-90;" vertex="1" parent="1">
          <mxGeometry x="540" y="1060" width="100" height="60" as="geometry" />
        </mxCell>
        <mxCell id="azU4eCN_7hu06B1J2iZ8-122" style="edgeStyle=orthogonalEdgeStyle;shape=connector;rounded=0;orthogonalLoop=1;jettySize=auto;html=1;entryX=0;entryY=0.75;entryDx=0;entryDy=0;entryPerimeter=0;labelBackgroundColor=default;strokeColor=default;align=center;verticalAlign=middle;fontFamily=Helvetica;fontSize=11;fontColor=default;endArrow=none;endFill=0;" edge="1" parent="1" source="azU4eCN_7hu06B1J2iZ8-18" target="azU4eCN_7hu06B1J2iZ8-121">
          <mxGeometry relative="1" as="geometry" />
        </mxCell>
        <mxCell id="azU4eCN_7hu06B1J2iZ8-123" value="&lt;font style=&quot;font-size: 14px;&quot;&gt;Enable&lt;br&gt;write&lt;/font&gt;" style="text;html=1;strokeColor=none;fillColor=none;align=center;verticalAlign=middle;whiteSpace=wrap;rounded=0;fontFamily=Helvetica;fontSize=11;fontColor=default;" vertex="1" parent="1">
          <mxGeometry x="560" y="1080" width="60" height="30" as="geometry" />
        </mxCell>
        <mxCell id="azU4eCN_7hu06B1J2iZ8-124" value="" style="endArrow=none;html=1;rounded=0;labelBackgroundColor=default;strokeColor=default;align=center;verticalAlign=middle;fontFamily=Helvetica;fontSize=11;fontColor=default;shape=connector;edgeStyle=orthogonalEdgeStyle;exitX=1;exitY=0.25;exitDx=0;exitDy=0;exitPerimeter=0;" edge="1" parent="1" source="azU4eCN_7hu06B1J2iZ8-8">
          <mxGeometry width="50" height="50" relative="1" as="geometry">
            <mxPoint x="827" y="159.47000000000003" as="sourcePoint" />
            <mxPoint x="920" y="450" as="targetPoint" />
            <Array as="points">
              <mxPoint x="900" y="100" />
              <mxPoint x="900" y="450" />
            </Array>
          </mxGeometry>
        </mxCell>
        <mxCell id="azU4eCN_7hu06B1J2iZ8-125" value="" style="endArrow=none;html=1;rounded=0;labelBackgroundColor=default;strokeColor=default;align=center;verticalAlign=middle;fontFamily=Helvetica;fontSize=11;fontColor=default;shape=connector;edgeStyle=orthogonalEdgeStyle;exitX=1;exitY=0.25;exitDx=0;exitDy=0;exitPerimeter=0;" edge="1" parent="1" source="azU4eCN_7hu06B1J2iZ8-7">
          <mxGeometry width="50" height="50" relative="1" as="geometry">
            <mxPoint x="820" y="250" as="sourcePoint" />
            <mxPoint x="920" y="470" as="targetPoint" />
            <Array as="points">
              <mxPoint x="881" y="220" />
              <mxPoint x="881" y="470" />
            </Array>
          </mxGeometry>
        </mxCell>
        <mxCell id="azU4eCN_7hu06B1J2iZ8-126" value="" style="endArrow=none;html=1;rounded=0;labelBackgroundColor=default;strokeColor=default;align=center;verticalAlign=middle;fontFamily=Helvetica;fontSize=11;fontColor=default;shape=connector;edgeStyle=orthogonalEdgeStyle;entryX=1;entryY=0.25;entryDx=0;entryDy=0;entryPerimeter=0;" edge="1" parent="1" target="azU4eCN_7hu06B1J2iZ8-6">
          <mxGeometry width="50" height="50" relative="1" as="geometry">
            <mxPoint x="920" y="490" as="sourcePoint" />
            <mxPoint x="860" y="349.47" as="targetPoint" />
            <Array as="points">
              <mxPoint x="860" y="490" />
              <mxPoint x="860" y="340" />
            </Array>
          </mxGeometry>
        </mxCell>
        <mxCell id="azU4eCN_7hu06B1J2iZ8-127" value="" style="endArrow=none;html=1;rounded=0;labelBackgroundColor=default;strokeColor=default;align=center;verticalAlign=middle;fontFamily=Helvetica;fontSize=11;fontColor=default;shape=connector;edgeStyle=orthogonalEdgeStyle;entryX=1;entryY=0.25;entryDx=0;entryDy=0;entryPerimeter=0;" edge="1" parent="1" target="azU4eCN_7hu06B1J2iZ8-5">
          <mxGeometry width="50" height="50" relative="1" as="geometry">
            <mxPoint x="920" y="510" as="sourcePoint" />
            <mxPoint x="877" y="469.47" as="targetPoint" />
            <Array as="points">
              <mxPoint x="840" y="510" />
              <mxPoint x="840" y="460" />
            </Array>
          </mxGeometry>
        </mxCell>
        <mxCell id="azU4eCN_7hu06B1J2iZ8-129" value="" style="endArrow=none;html=1;rounded=0;labelBackgroundColor=default;strokeColor=default;align=center;verticalAlign=middle;fontFamily=Helvetica;fontSize=11;fontColor=default;shape=connector;edgeStyle=orthogonalEdgeStyle;exitX=1;exitY=0.25;exitDx=0;exitDy=0;exitPerimeter=0;" edge="1" parent="1" source="azU4eCN_7hu06B1J2iZ8-1">
          <mxGeometry width="50" height="50" relative="1" as="geometry">
            <mxPoint x="880" y="970" as="sourcePoint" />
            <mxPoint x="920" y="590" as="targetPoint" />
            <Array as="points">
              <mxPoint x="900" y="940" />
              <mxPoint x="900" y="590" />
            </Array>
          </mxGeometry>
        </mxCell>
        <mxCell id="azU4eCN_7hu06B1J2iZ8-130" value="" style="endArrow=none;html=1;rounded=0;labelBackgroundColor=default;strokeColor=default;align=center;verticalAlign=middle;fontFamily=Helvetica;fontSize=11;fontColor=default;shape=connector;edgeStyle=orthogonalEdgeStyle;exitX=1;exitY=0.25;exitDx=0;exitDy=0;exitPerimeter=0;" edge="1" parent="1" source="azU4eCN_7hu06B1J2iZ8-3">
          <mxGeometry width="50" height="50" relative="1" as="geometry">
            <mxPoint x="860" y="759.47" as="sourcePoint" />
            <mxPoint x="920" y="550" as="targetPoint" />
            <Array as="points">
              <mxPoint x="860" y="700" />
              <mxPoint x="860" y="550" />
            </Array>
          </mxGeometry>
        </mxCell>
        <mxCell id="azU4eCN_7hu06B1J2iZ8-131" value="" style="endArrow=none;html=1;rounded=0;labelBackgroundColor=default;strokeColor=default;align=center;verticalAlign=middle;fontFamily=Helvetica;fontSize=11;fontColor=default;shape=connector;edgeStyle=orthogonalEdgeStyle;exitX=1;exitY=0.25;exitDx=0;exitDy=0;exitPerimeter=0;" edge="1" parent="1" source="azU4eCN_7hu06B1J2iZ8-2">
          <mxGeometry width="50" height="50" relative="1" as="geometry">
            <mxPoint x="710" y="830" as="sourcePoint" />
            <mxPoint x="920" y="570" as="targetPoint" />
            <Array as="points">
              <mxPoint x="880" y="820" />
              <mxPoint x="880" y="570" />
            </Array>
          </mxGeometry>
        </mxCell>
        <mxCell id="azU4eCN_7hu06B1J2iZ8-132" value="" style="endArrow=none;html=1;rounded=0;labelBackgroundColor=default;strokeColor=default;align=center;verticalAlign=middle;fontFamily=Helvetica;fontSize=11;fontColor=default;shape=connector;edgeStyle=orthogonalEdgeStyle;entryX=1;entryY=0.25;entryDx=0;entryDy=0;entryPerimeter=0;" edge="1" parent="1" target="azU4eCN_7hu06B1J2iZ8-4">
          <mxGeometry width="50" height="50" relative="1" as="geometry">
            <mxPoint x="920" y="530" as="sourcePoint" />
            <mxPoint x="880" y="580" as="targetPoint" />
            <Array as="points">
              <mxPoint x="840" y="530" />
              <mxPoint x="840" y="580" />
            </Array>
          </mxGeometry>
        </mxCell>
        <mxCell id="azU4eCN_7hu06B1J2iZ8-134" value="Dato in Uscita&lt;br&gt;(8 bit)" style="rounded=0;whiteSpace=wrap;html=1;fontFamily=Helvetica;fontSize=11;fontColor=default;" vertex="1" parent="1">
          <mxGeometry x="920" y="420" width="80" height="200" as="geometry" />
        </mxCell>
        <mxCell id="azU4eCN_7hu06B1J2iZ8-136" value="Ho problema con ritardo commutazione se il dato letto&amp;nbsp; è zero lo scrivo comunque perchè il calcolo dell&#39; enabler non è istantaneo di conseguenza potrebbe scrivere il dato 0.&lt;br&gt;L&#39;enable blocca il clock con un ritardo di 3 porte logiche&amp;nbsp;" style="text;html=1;strokeColor=none;fillColor=none;align=center;verticalAlign=middle;whiteSpace=wrap;rounded=0;fontFamily=Helvetica;fontSize=11;fontColor=default;" vertex="1" parent="1">
          <mxGeometry x="390" y="1480" width="360" height="60" as="geometry" />
        </mxCell>
        <mxCell id="azU4eCN_7hu06B1J2iZ8-138" value="" style="endArrow=none;html=1;rounded=0;labelBackgroundColor=default;strokeColor=default;align=center;verticalAlign=middle;fontFamily=Helvetica;fontSize=11;fontColor=default;shape=connector;edgeStyle=orthogonalEdgeStyle;entryDx=0;entryDy=0;entryPerimeter=0;" edge="1" parent="1" target="azU4eCN_7hu06B1J2iZ8-137">
          <mxGeometry width="50" height="50" relative="1" as="geometry">
            <mxPoint y="570" as="sourcePoint" />
            <mxPoint x="160" y="1255" as="targetPoint" />
            <Array as="points" />
          </mxGeometry>
        </mxCell>
        <mxCell id="azU4eCN_7hu06B1J2iZ8-137" value="" style="shape=waypoint;sketch=0;fillStyle=solid;size=6;pointerEvents=1;points=[];fillColor=none;resizable=0;rotatable=0;perimeter=centerPerimeter;snapToPoint=1;fontFamily=Helvetica;fontSize=11;fontColor=default;" vertex="1" parent="1">
          <mxGeometry x="-10" y="560" width="20" height="20" as="geometry" />
        </mxCell>
        <mxCell id="azU4eCN_7hu06B1J2iZ8-145" value="" style="edgeStyle=orthogonalEdgeStyle;rounded=0;orthogonalLoop=1;jettySize=auto;html=1;endArrow=none;endFill=0;" edge="1" parent="1" target="azU4eCN_7hu06B1J2iZ8-144">
          <mxGeometry relative="1" as="geometry">
            <mxPoint x="40" y="530" as="sourcePoint" />
            <mxPoint x="590" y="580" as="targetPoint" />
            <Array as="points" />
          </mxGeometry>
        </mxCell>
        <mxCell id="azU4eCN_7hu06B1J2iZ8-144" value="" style="shape=waypoint;sketch=0;fillStyle=solid;size=6;pointerEvents=1;points=[];fillColor=none;resizable=0;rotatable=0;perimeter=centerPerimeter;snapToPoint=1;fontFamily=Helvetica;fontSize=11;fontColor=default;" vertex="1" parent="1">
          <mxGeometry x="30" y="520" width="20" height="20" as="geometry" />
        </mxCell>
        <mxCell id="uQ6aWw3yMT1jpS9UQARC-2" style="edgeStyle=orthogonalEdgeStyle;rounded=0;orthogonalLoop=1;jettySize=auto;html=1;" edge="1" parent="1" source="uQ6aWw3yMT1jpS9UQARC-1" target="azU4eCN_7hu06B1J2iZ8-136">
          <mxGeometry relative="1" as="geometry" />
        </mxCell>
        <mxCell id="uQ6aWw3yMT1jpS9UQARC-1" value="Il calcolo degli OR richiede tre livelli di logica,&lt;br&gt;il ritardo potrebbe dare problemi?" style="text;html=1;strokeColor=#b85450;fillColor=#f8cecc;align=center;verticalAlign=middle;whiteSpace=wrap;rounded=0;" vertex="1" parent="1">
          <mxGeometry x="410" y="1250" width="150" height="70" as="geometry" />
        </mxCell>
      </root>
    </mxGraphModel>
  </diagram>
</mxfile>
